<svg xmlns="http://www.w3.org/2000/svg" xmlns:xlink="http://www.w3.org/1999/xlink" version="1.1" x="0px" y="0px" width="100%" viewBox="0 0 48 48" enable-background="new 0 0 48 48" xml:space="preserve">

  <symbol id="video-thumbnail">
    <path fill-rule="evenodd" clip-rule="evenodd" d="M43,42H5c-2.209,0-4-1.791-4-4V10c0-2.209,1.791-4,4-4h38c2.209,0,4,1.791,4,4v28  C47,40.209,45.209,42,43,42z M12,8H5c-1.104,0-2,0.896-2,2v2h9V8z M23,8h-9v4h9V8z M34,8h-9v4h9V8z M45,10c0-1.104-0.896-2-2-2h-7v4  h9l0,0V10z M45,14L45,14H3v20h42l0,0V14z M45,36L45,36h-9v4h-2v-4h-9v4h-2v-4h-9v4h-2v-4H3v2c0,1.104,0.896,2,2,2h38  c1.104,0,2-0.896,2-2V36z M21.621,29.765C21.449,29.904,21.238,30,21,30c-0.553,0-1-0.447-1-1V19c0-0.552,0.447-1,1-1  c0.213,0,0.4,0.082,0.563,0.196l7.771,4.872C29.72,23.205,30,23.566,30,24c0,0.325-0.165,0.601-0.405,0.783L21.621,29.765z"/>
  </symbol>

  <path id="external-link" d="M 25.980469 2.9902344 A 1.0001 1.0001 0 0 0 25.869141 3 L 20 3 A 1.0001 1.0001 0 1 0 20 5 L 23.585938 5 L 13.292969 15.292969 A 1.0001 1.0001 0 1 0 14.707031 16.707031 L 25 6.4140625 L 25 10 A 1.0001 1.0001 0 1 0 27 10 L 27 4.1269531 A 1.0001 1.0001 0 0 0 25.980469 2.9902344 z M 6 7 C 4.9069372 7 4 7.9069372 4 9 L 4 24 C 4 25.093063 4.9069372 26 6 26 L 21 26 C 22.093063 26 23 25.093063 23 24 L 23 14 L 23 11.421875 L 21 13.421875 L 21 16 L 21 24 L 6 24 L 6 9 L 14 9 L 16 9 L 16.578125 9 L 18.578125 7 L 16 7 L 14 7 L 6 7 z"/>


  <path id="mail" d="M854.186667 827.733333h-682.666667c-66.884267 0-103.253333-36.369067-103.253333-102.4v-426.666666c0-33.109333 9.216-58.7776 27.392-76.288l0.017066-0.017067C112.930133 205.124267 138.222933 196.266667 170.666667 196.266667h682.666666c32.9728 0 58.811733 9.130667 76.868267 27.136l0.0512 0.0512C947.165867 240.366933 955.733333 265.6768 955.733333 298.666667v426.666666c0 65.365333-35.9936 101.7344-101.341866 102.4h-0.2048z m-641.467734-34.133333h600.2688L598.186667 578.798933l-73.2672 73.2672a17.0496 17.0496 0 0 1-24.132267 0l-73.2672-73.2672L212.718933 793.6zM109.550933 260.846933C104.789333 270.865067 102.4 283.4944 102.4 298.666667v426.666666c0 45.141333 19.234133 66.3552 62.173867 68.1472L403.387733 554.666667 109.550933 260.846933z m512.785067 293.8368L861.013333 793.361067C902.843733 790.903467 921.6 769.672533 921.6 725.333333v-426.666666c0-14.677333-2.013867-26.862933-6.007467-36.471467L622.336 554.683733zM133.9904 237.0048L512.853333 615.867733l378.9824-378.180266c-10.274133-4.846933-23.159467-7.287467-38.5024-7.287467H170.666667c-14.626133 0-26.897067 2.218667-36.676267 6.6048z"  />
  
</svg>
