<?xml version="1.0" encoding="utf-8"?>
<!-- Generator: Adobe Illustrator 25.4.2, SVG Export Plug-In . SVG Version: 6.00 Build 0)  -->
<svg version="1.1" id="Layer_1" xmlns="http://www.w3.org/2000/svg" xmlns:xlink="http://www.w3.org/1999/xlink" x="0px" y="0px"
	 viewBox="0 0 913 452.7" style="enable-background:new 0 0 913 452.7;" xml:space="preserve">
<style type="text/css">
	.st0{fill:#00FF84;}
</style>
<g>
	<path d="M264.9,241.5l-48.4-69.3v69.2h-50.1V82.1h50.1v67.4l49.7-66.9h59.3l-61,75.2l61.9,83.7H264.9z"/>
	<ellipse class="st0" cx="883" cy="421.9" rx="29.4" ry="29"/>
	<g>
		<ellipse class="st0" cx="371.8" cy="29" rx="29.4" ry="29"/>
		<rect x="346.8" y="82.1" width="50.1" height="159.3"/>
	</g>
	<path d="M345.8,368.3c0-47.5,29.3-83.7,75.5-83.7c23.1,0,41.2,10.9,49.8,27v-22.7h50.1v158.8h-50.1v-22.4
		c-8.6,15.8-28.3,26.7-50.4,26.7C373.2,452,345.8,416,345.8,368.3z M473.1,368.3c0-22.7-12.9-41.5-37.9-41.5
		c-23.4,0-37.9,17.5-37.9,41.5c0,24.1,14.5,41.9,37.9,41.9C460.2,410.1,473.1,391.3,473.1,368.3z"/>
	<path d="M550.7,288.8h50.4v33.3c5.6-23.7,24.4-35.9,43.8-35.9c5.9,0,9.2,0.3,13.2,1.3l-0.3,46.8c-5.9-0.7-8.6-1-14.9-1
		c-27.4,0-41.9,17.8-41.9,53.1v61.3h-50.4V288.8H550.7z"/>
	<path d="M668.4,368.3c0-52.1,33.9-83.7,85.7-83.7c49.4,0,83.1,30.7,83.1,75.5c0,8.2-0.3,13.2-1.3,22.1H718.5
		c1,20.8,14.8,32,37.2,32c15.5,0,25.4-4.3,29.7-14.2h49.4c-4.9,31.3-36.9,52.1-79.1,52.1C701.7,452,668.4,421.3,668.4,368.3z
		 M787.4,350.8c-0.3-21.1-12.2-32.3-33.6-32.3c-21.7,0-34.9,12.9-35.3,32.3H787.4z"/>
	<polygon points="476.4,194.1 476.4,82.1 426,82.1 426,195.8 426,241.5 476.4,241.5 548.4,241.5 548.4,194.1 	"/>
	<polygon points="626.1,194.1 626.1,82.1 575.7,82.1 575.7,195.8 575.7,241.5 626.1,241.5 698.1,241.5 698.1,194.1 	"/>
	<polygon points="276.3,288.8 276.3,346 215.9,346 215.9,288.8 166.4,288.8 166.4,346 166.4,391.6 166.4,448.1 215.9,448.1 
		215.9,391.6 276.3,391.6 276.3,448.1 325.7,448.1 325.7,391.6 325.7,346 325.7,288.8 	"/>
	<path d="M104.2,353.3l-30.8-8.5c-10.4-3.1-14-7.7-14-14.1c0-7.1,5.5-11.2,12.7-12c10.4-1.2,18.5,3.3,18.5,14.5v0.7h53v-0.7l0,0
		c0-31.7-26.8-49.2-71.6-49.2c-40.8,0-67.8,19.8-67.8,49.9c0,24.1,14.5,40.3,39.8,46.6l31.8,8c9.5,3,13.3,7.6,13.2,14.9
		c0,7.9-8,12.4-16.1,12.8c-11.8,0.5-20.4-5.9-21-16H0c0.8,30.4,30.5,51.7,75,51.7c42.1,0,69.5-19.5,69.5-52.5
		C144.4,375.1,129.2,360,104.2,353.3z"/>
	<path d="M104.2,147.1l-30.8-8.5c-10.4-3.1-14-7.7-14-14.1c0-7.1,5.5-11.2,12.7-12c10.4-1.2,18.5,3.3,18.5,14.5v0.7h53V127l0,0
		c0-31.7-26.8-49.2-71.6-49.2c-40.8,0-67.8,19.8-67.8,49.9c0,24.1,14.5,40.3,39.8,46.6l31.8,8c9.5,3,13.3,7.6,13.2,14.9
		c0,7.9-8,12.4-16.1,12.8c-11.8,0.5-20.4-5.9-21-16H0c0.8,30.4,30.5,51.7,75,51.7c42.1,0,69.5-19.5,69.5-52.5
		C144.4,168.9,129.2,153.7,104.2,147.1z"/>
</g>
</svg>
