<?xml version="1.0" encoding="utf-8"?>
<!-- Generator: Adobe Illustrator 23.1.1, SVG Export Plug-In . SVG Version: 6.00 Build 0)  -->
<svg version="1.1" id="Layer_1" xmlns="http://www.w3.org/2000/svg" xmlns:xlink="http://www.w3.org/1999/xlink" x="0px" y="0px"
	 viewBox="0 0 1098.5 637.7" style="enable-background:new 0 0 1098.5 637.7;" xml:space="preserve">
<style type="text/css">
	.st0{fill:#00FF84;}
</style>
<g>
	<path d="M387.4,305.8L339,236.5v69.2h-50.1V146.4H339v67.4l49.7-66.9h59.3l-61,75.2l61.9,83.7H387.4z"/>
	<ellipse class="st0" cx="1005.5" cy="486.2" rx="29.4" ry="29"/>
	<g>
		<ellipse class="st0" cx="494.3" cy="93.3" rx="29.4" ry="29"/>
		<rect x="469.3" y="146.4" width="50.1" height="159.3"/>
	</g>
	<path d="M468.3,432.6c0-47.5,29.3-83.7,75.5-83.7c23.1,0,41.2,10.9,49.8,27v-22.7h50.1V512h-50.1v-22.4
		c-8.6,15.8-28.3,26.7-50.4,26.7C495.7,516.3,468.3,480.3,468.3,432.6z M595.6,432.6c0-22.7-12.9-41.5-37.9-41.5
		c-23.4,0-37.9,17.5-37.9,41.5c0,24.1,14.5,41.9,37.9,41.9C582.7,474.4,595.6,455.6,595.6,432.6z"/>
	<path d="M673.2,353.1h50.4v33.3c5.6-23.7,24.4-35.9,43.8-35.9c5.9,0,9.2,0.3,13.2,1.3l-0.3,46.8c-5.9-0.7-8.6-1-14.9-1
		c-27.4,0-41.9,17.8-41.9,53.1V512h-50.4V353.1z"/>
	<path d="M790.9,432.6c0-52.1,33.9-83.7,85.7-83.7c49.4,0,83.1,30.7,83.1,75.5c0,8.2-0.3,13.2-1.3,22.1H841c1,20.8,14.8,32,37.2,32
		c15.5,0,25.4-4.3,29.7-14.2h49.4c-4.9,31.3-36.9,52.1-79.1,52.1C824.2,516.3,790.9,485.6,790.9,432.6z M909.9,415.1
		c-0.3-21.1-12.2-32.3-33.6-32.3c-21.7,0-34.9,12.9-35.3,32.3H909.9z"/>
	<polygon points="598.9,258.4 598.9,146.4 548.5,146.4 548.5,260.1 548.5,305.8 598.9,305.8 670.9,305.8 670.9,258.4 	"/>
	<polygon points="748.6,258.4 748.6,146.4 698.2,146.4 698.2,260.1 698.2,305.8 748.6,305.8 820.6,305.8 820.6,258.4 	"/>
	<polygon points="398.8,353.1 398.8,410.3 338.4,410.3 338.4,353.1 288.9,353.1 288.9,410.3 288.9,455.9 288.9,512.4 338.4,512.4 
		338.4,455.9 398.8,455.9 398.8,512.4 448.2,512.4 448.2,455.9 448.2,410.3 448.2,353.1 	"/>
	<path d="M226.7,417.6l-30.8-8.5c-10.4-3.1-14-7.7-14-14.1c0-7.1,5.5-11.2,12.7-12c10.4-1.2,18.5,3.3,18.5,14.5v0.7h53v-0.7h0
		c0-31.7-26.8-49.2-71.6-49.2c-40.8,0-67.8,19.8-67.8,49.9c0,24.1,14.5,40.3,39.8,46.6l31.8,8c9.5,3,13.3,7.6,13.2,14.9
		c0,7.9-8,12.4-16.1,12.8c-11.8,0.5-20.4-5.9-21-16h-51.9c0.8,30.4,30.5,51.7,75,51.7c42.1,0,69.5-19.5,69.5-52.5
		C266.9,439.4,251.7,424.3,226.7,417.6z"/>
	<path d="M226.7,211.4l-30.8-8.5c-10.4-3.1-14-7.7-14-14.1c0-7.1,5.5-11.2,12.7-12c10.4-1.2,18.5,3.3,18.5,14.5v0.7h53v-0.7h0
		c0-31.7-26.8-49.2-71.6-49.2c-40.8,0-67.8,19.8-67.8,49.9c0,24.1,14.5,40.3,39.8,46.6l31.8,8c9.5,3,13.3,7.6,13.2,14.9
		c0,7.9-8,12.4-16.1,12.8c-11.8,0.5-20.4-5.9-21-16h-51.9c0.8,30.4,30.5,51.7,75,51.7c42.1,0,69.5-19.5,69.5-52.5
		C266.9,233.2,251.7,218,226.7,211.4z"/>
</g>
</svg>
